<mxfile host="app.diagrams.net" agent="Mozilla/5.0 (Windows NT 10.0; Win64; x64; rv:128.0) Gecko/20100101 Firefox/128.0" version="24.7.16">
  <diagram name="Page-1" id="8ce9d11a-91a2-4d17-14d8-a56ed91bf033">
    <mxGraphModel dx="1500" dy="1769" grid="1" gridSize="10" guides="1" tooltips="1" connect="1" arrows="1" fold="1" page="1" pageScale="1" pageWidth="1100" pageHeight="850" background="none" math="0" shadow="0">
      <root>
        <mxCell id="0" />
        <mxCell id="1" parent="0" />
        <mxCell id="17ea667e15c223fc-28" style="edgeStyle=orthogonalEdgeStyle;rounded=1;html=1;labelBackgroundColor=none;startArrow=none;startFill=0;startSize=5;endArrow=classicThin;endFill=1;endSize=5;jettySize=auto;orthogonalLoop=1;strokeWidth=1;fontFamily=Verdana;fontSize=8" parent="1" source="17ea667e15c223fc-1" target="17ea667e15c223fc-2" edge="1">
          <mxGeometry relative="1" as="geometry" />
        </mxCell>
        <mxCell id="17ea667e15c223fc-1" value="Auftrag Liegt vor&amp;nbsp;" style="shape=hexagon;perimeter=hexagonPerimeter;whiteSpace=wrap;html=1;rounded=0;shadow=0;labelBackgroundColor=none;strokeWidth=1;fontFamily=Verdana;fontSize=12;align=center;" parent="1" vertex="1">
          <mxGeometry x="180" y="-40" width="120" height="80" as="geometry" />
        </mxCell>
        <mxCell id="17ea667e15c223fc-29" style="edgeStyle=orthogonalEdgeStyle;rounded=1;html=1;labelBackgroundColor=none;startArrow=none;startFill=0;startSize=5;endArrow=classicThin;endFill=1;endSize=5;jettySize=auto;orthogonalLoop=1;strokeWidth=1;fontFamily=Verdana;fontSize=8" parent="1" source="17ea667e15c223fc-2" target="17ea667e15c223fc-3" edge="1">
          <mxGeometry relative="1" as="geometry" />
        </mxCell>
        <mxCell id="17ea667e15c223fc-2" value="Konzepte werden erstellt" style="rounded=1;whiteSpace=wrap;html=1;shadow=0;labelBackgroundColor=none;strokeWidth=1;fontFamily=Verdana;fontSize=12;align=center;" parent="1" vertex="1">
          <mxGeometry x="180" y="60" width="120" height="80" as="geometry" />
        </mxCell>
        <mxCell id="17ea667e15c223fc-30" style="edgeStyle=orthogonalEdgeStyle;rounded=1;html=1;labelBackgroundColor=none;startArrow=none;startFill=0;startSize=5;endArrow=classicThin;endFill=1;endSize=5;jettySize=auto;orthogonalLoop=1;strokeWidth=1;fontFamily=Verdana;fontSize=8;entryX=0.5;entryY=0;entryDx=0;entryDy=0;" parent="1" source="17ea667e15c223fc-3" target="17ea667e15c223fc-8" edge="1">
          <mxGeometry relative="1" as="geometry">
            <mxPoint x="360" y="230" as="targetPoint" />
          </mxGeometry>
        </mxCell>
        <mxCell id="17ea667e15c223fc-31" style="edgeStyle=orthogonalEdgeStyle;rounded=1;html=1;labelBackgroundColor=none;startArrow=none;startFill=0;startSize=5;endArrow=classicThin;endFill=1;endSize=5;jettySize=auto;orthogonalLoop=1;strokeWidth=1;fontFamily=Verdana;fontSize=8;entryX=0.5;entryY=0;entryDx=0;entryDy=0;" parent="1" source="17ea667e15c223fc-3" target="17ea667e15c223fc-7" edge="1">
          <mxGeometry relative="1" as="geometry">
            <mxPoint x="130" y="230" as="targetPoint" />
          </mxGeometry>
        </mxCell>
        <mxCell id="17ea667e15c223fc-3" value="AND" style="ellipse;whiteSpace=wrap;html=1;rounded=1;shadow=0;labelBackgroundColor=none;strokeWidth=1;fontFamily=Verdana;fontSize=12;align=center;" parent="1" vertex="1">
          <mxGeometry x="220" y="160" width="40" height="40" as="geometry" />
        </mxCell>
        <mxCell id="ca0Y0NpTfNseze-UoOXc-5" value="" style="edgeStyle=orthogonalEdgeStyle;rounded=0;orthogonalLoop=1;jettySize=auto;html=1;" parent="1" source="17ea667e15c223fc-7" target="ca0Y0NpTfNseze-UoOXc-4" edge="1">
          <mxGeometry relative="1" as="geometry" />
        </mxCell>
        <mxCell id="17ea667e15c223fc-7" value="Datenbank erstellen" style="rounded=1;whiteSpace=wrap;html=1;shadow=0;labelBackgroundColor=none;strokeWidth=1;fontFamily=Verdana;fontSize=12;align=center;" parent="1" vertex="1">
          <mxGeometry x="70" y="240" width="120" height="80" as="geometry" />
        </mxCell>
        <mxCell id="ca0Y0NpTfNseze-UoOXc-2" style="edgeStyle=orthogonalEdgeStyle;rounded=0;orthogonalLoop=1;jettySize=auto;html=1;exitX=0.5;exitY=1;exitDx=0;exitDy=0;entryX=0.5;entryY=0;entryDx=0;entryDy=0;" parent="1" source="17ea667e15c223fc-8" target="ca0Y0NpTfNseze-UoOXc-1" edge="1">
          <mxGeometry relative="1" as="geometry" />
        </mxCell>
        <mxCell id="17ea667e15c223fc-8" value="Applikation erstellen" style="rounded=1;whiteSpace=wrap;html=1;shadow=0;labelBackgroundColor=none;strokeWidth=1;fontFamily=Verdana;fontSize=12;align=center;" parent="1" vertex="1">
          <mxGeometry x="300" y="240" width="120" height="80" as="geometry" />
        </mxCell>
        <mxCell id="17ea667e15c223fc-40" style="edgeStyle=orthogonalEdgeStyle;rounded=1;html=1;labelBackgroundColor=none;startArrow=none;startFill=0;startSize=5;endArrow=classicThin;endFill=1;endSize=5;jettySize=auto;orthogonalLoop=1;strokeWidth=1;fontFamily=Verdana;fontSize=8" parent="1" source="17ea667e15c223fc-10" edge="1">
          <mxGeometry relative="1" as="geometry">
            <mxPoint x="240" y="540" as="targetPoint" />
          </mxGeometry>
        </mxCell>
        <mxCell id="17ea667e15c223fc-10" value="OR" style="ellipse;whiteSpace=wrap;html=1;rounded=1;shadow=0;labelBackgroundColor=none;strokeWidth=1;fontFamily=Verdana;fontSize=12;align=center;" parent="1" vertex="1">
          <mxGeometry x="220" y="460" width="40" height="40" as="geometry" />
        </mxCell>
        <mxCell id="ca0Y0NpTfNseze-UoOXc-3" style="edgeStyle=orthogonalEdgeStyle;rounded=1;orthogonalLoop=1;jettySize=auto;html=1;exitX=0.5;exitY=1;exitDx=0;exitDy=0;entryX=1;entryY=0.5;entryDx=0;entryDy=0;curved=0;" parent="1" source="ca0Y0NpTfNseze-UoOXc-1" target="17ea667e15c223fc-10" edge="1">
          <mxGeometry relative="1" as="geometry">
            <mxPoint x="270" y="480" as="targetPoint" />
            <Array as="points">
              <mxPoint x="360" y="480" />
            </Array>
          </mxGeometry>
        </mxCell>
        <mxCell id="ca0Y0NpTfNseze-UoOXc-1" value="Applikation fertig" style="shape=hexagon;perimeter=hexagonPerimeter;whiteSpace=wrap;html=1;rounded=0;shadow=0;labelBackgroundColor=none;strokeWidth=1;fontFamily=Verdana;fontSize=12;align=center;" parent="1" vertex="1">
          <mxGeometry x="300" y="360" width="120" height="80" as="geometry" />
        </mxCell>
        <mxCell id="ca0Y0NpTfNseze-UoOXc-6" style="edgeStyle=orthogonalEdgeStyle;rounded=1;orthogonalLoop=1;jettySize=auto;html=1;exitX=0.5;exitY=1;exitDx=0;exitDy=0;entryX=0;entryY=0.5;entryDx=0;entryDy=0;curved=0;" parent="1" source="ca0Y0NpTfNseze-UoOXc-4" target="17ea667e15c223fc-10" edge="1">
          <mxGeometry relative="1" as="geometry" />
        </mxCell>
        <mxCell id="ca0Y0NpTfNseze-UoOXc-4" value="Datenbank fertig" style="shape=hexagon;perimeter=hexagonPerimeter;whiteSpace=wrap;html=1;rounded=0;shadow=0;labelBackgroundColor=none;strokeWidth=1;fontFamily=Verdana;fontSize=12;align=center;" parent="1" vertex="1">
          <mxGeometry x="70" y="360" width="120" height="80" as="geometry" />
        </mxCell>
        <mxCell id="ca0Y0NpTfNseze-UoOXc-9" style="edgeStyle=orthogonalEdgeStyle;rounded=0;orthogonalLoop=1;jettySize=auto;html=1;exitX=0.5;exitY=1;exitDx=0;exitDy=0;entryX=0.5;entryY=0;entryDx=0;entryDy=0;" parent="1" source="ca0Y0NpTfNseze-UoOXc-7" target="ca0Y0NpTfNseze-UoOXc-8" edge="1">
          <mxGeometry relative="1" as="geometry" />
        </mxCell>
        <mxCell id="ca0Y0NpTfNseze-UoOXc-7" value="Tests erstellen" style="rounded=1;whiteSpace=wrap;html=1;shadow=0;labelBackgroundColor=none;strokeWidth=1;fontFamily=Verdana;fontSize=12;align=center;" parent="1" vertex="1">
          <mxGeometry x="180" y="540" width="120" height="80" as="geometry" />
        </mxCell>
        <mxCell id="ca0Y0NpTfNseze-UoOXc-13" style="edgeStyle=orthogonalEdgeStyle;rounded=1;orthogonalLoop=1;jettySize=auto;html=1;exitX=1;exitY=0.5;exitDx=0;exitDy=0;entryX=0.5;entryY=0;entryDx=0;entryDy=0;curved=0;" parent="1" source="ca0Y0NpTfNseze-UoOXc-8" target="ca0Y0NpTfNseze-UoOXc-12" edge="1">
          <mxGeometry relative="1" as="geometry" />
        </mxCell>
        <mxCell id="ca0Y0NpTfNseze-UoOXc-14" style="edgeStyle=orthogonalEdgeStyle;rounded=1;orthogonalLoop=1;jettySize=auto;html=1;exitX=0;exitY=0.5;exitDx=0;exitDy=0;entryX=0.5;entryY=0;entryDx=0;entryDy=0;curved=0;" parent="1" source="ca0Y0NpTfNseze-UoOXc-8" target="ca0Y0NpTfNseze-UoOXc-11" edge="1">
          <mxGeometry relative="1" as="geometry" />
        </mxCell>
        <mxCell id="ca0Y0NpTfNseze-UoOXc-8" value="XOR" style="ellipse;whiteSpace=wrap;html=1;rounded=1;shadow=0;labelBackgroundColor=none;strokeWidth=1;fontFamily=Verdana;fontSize=12;align=center;" parent="1" vertex="1">
          <mxGeometry x="220" y="650" width="40" height="40" as="geometry" />
        </mxCell>
        <mxCell id="ca0Y0NpTfNseze-UoOXc-15" style="edgeStyle=orthogonalEdgeStyle;rounded=1;orthogonalLoop=1;jettySize=auto;html=1;exitX=0;exitY=0.5;exitDx=0;exitDy=0;entryX=0;entryY=0.5;entryDx=0;entryDy=0;curved=0;" parent="1" source="ca0Y0NpTfNseze-UoOXc-11" target="17ea667e15c223fc-2" edge="1">
          <mxGeometry relative="1" as="geometry">
            <mxPoint x="20" y="90" as="targetPoint" />
          </mxGeometry>
        </mxCell>
        <mxCell id="ca0Y0NpTfNseze-UoOXc-11" value="Test fehlgeschlagen" style="shape=hexagon;perimeter=hexagonPerimeter;whiteSpace=wrap;html=1;rounded=0;shadow=0;labelBackgroundColor=none;strokeWidth=1;fontFamily=Verdana;fontSize=12;align=center;" parent="1" vertex="1">
          <mxGeometry x="30" y="690" width="120" height="80" as="geometry" />
        </mxCell>
        <mxCell id="ca0Y0NpTfNseze-UoOXc-17" style="edgeStyle=orthogonalEdgeStyle;rounded=0;orthogonalLoop=1;jettySize=auto;html=1;exitX=0.5;exitY=1;exitDx=0;exitDy=0;entryX=0.5;entryY=0;entryDx=0;entryDy=0;" parent="1" source="ca0Y0NpTfNseze-UoOXc-12" target="ca0Y0NpTfNseze-UoOXc-16" edge="1">
          <mxGeometry relative="1" as="geometry" />
        </mxCell>
        <mxCell id="ca0Y0NpTfNseze-UoOXc-12" value="Test funktioniert" style="shape=hexagon;perimeter=hexagonPerimeter;whiteSpace=wrap;html=1;rounded=0;shadow=0;labelBackgroundColor=none;strokeWidth=1;fontFamily=Verdana;fontSize=12;align=center;" parent="1" vertex="1">
          <mxGeometry x="320" y="690" width="120" height="80" as="geometry" />
        </mxCell>
        <mxCell id="ca0Y0NpTfNseze-UoOXc-19" style="edgeStyle=orthogonalEdgeStyle;rounded=0;orthogonalLoop=1;jettySize=auto;html=1;exitX=0.5;exitY=1;exitDx=0;exitDy=0;entryX=0.5;entryY=0;entryDx=0;entryDy=0;" parent="1" source="ca0Y0NpTfNseze-UoOXc-16" target="ca0Y0NpTfNseze-UoOXc-18" edge="1">
          <mxGeometry relative="1" as="geometry" />
        </mxCell>
        <mxCell id="ca0Y0NpTfNseze-UoOXc-16" value="System initialisieren" style="rounded=1;whiteSpace=wrap;html=1;shadow=0;labelBackgroundColor=none;strokeWidth=1;fontFamily=Verdana;fontSize=12;align=center;" parent="1" vertex="1">
          <mxGeometry x="320" y="800" width="120" height="80" as="geometry" />
        </mxCell>
        <mxCell id="ca0Y0NpTfNseze-UoOXc-18" value="Prozess fertig" style="shape=hexagon;perimeter=hexagonPerimeter;whiteSpace=wrap;html=1;rounded=0;shadow=0;labelBackgroundColor=none;strokeWidth=1;fontFamily=Verdana;fontSize=12;align=center;" parent="1" vertex="1">
          <mxGeometry x="320" y="910" width="120" height="80" as="geometry" />
        </mxCell>
        <mxCell id="WA74hJwfeO4JnZrtwxxe-3" style="edgeStyle=orthogonalEdgeStyle;rounded=0;orthogonalLoop=1;jettySize=auto;html=1;exitX=0.5;exitY=1;exitDx=0;exitDy=0;entryX=0.5;entryY=0;entryDx=0;entryDy=0;" parent="1" source="WA74hJwfeO4JnZrtwxxe-1" target="WA74hJwfeO4JnZrtwxxe-2" edge="1">
          <mxGeometry relative="1" as="geometry" />
        </mxCell>
        <mxCell id="WA74hJwfeO4JnZrtwxxe-1" value="Kunde füllt Formular aus" style="shape=hexagon;perimeter=hexagonPerimeter;whiteSpace=wrap;html=1;rounded=0;shadow=0;labelBackgroundColor=none;strokeWidth=1;fontFamily=Verdana;fontSize=12;align=center;" parent="1" vertex="1">
          <mxGeometry x="780" y="-40" width="120" height="80" as="geometry" />
        </mxCell>
        <mxCell id="WA74hJwfeO4JnZrtwxxe-5" style="edgeStyle=orthogonalEdgeStyle;rounded=0;orthogonalLoop=1;jettySize=auto;html=1;exitX=0.5;exitY=1;exitDx=0;exitDy=0;entryX=0.5;entryY=0;entryDx=0;entryDy=0;" parent="1" source="WA74hJwfeO4JnZrtwxxe-2" target="WA74hJwfeO4JnZrtwxxe-4" edge="1">
          <mxGeometry relative="1" as="geometry" />
        </mxCell>
        <mxCell id="WA74hJwfeO4JnZrtwxxe-2" value="Bestellung wird abgeschickt" style="rounded=1;whiteSpace=wrap;html=1;shadow=0;labelBackgroundColor=none;strokeWidth=1;fontFamily=Verdana;fontSize=12;align=center;" parent="1" vertex="1">
          <mxGeometry x="780" y="70" width="120" height="80" as="geometry" />
        </mxCell>
        <mxCell id="WA74hJwfeO4JnZrtwxxe-8" style="edgeStyle=orthogonalEdgeStyle;rounded=0;orthogonalLoop=1;jettySize=auto;html=1;exitX=0.5;exitY=1;exitDx=0;exitDy=0;entryX=0.5;entryY=0;entryDx=0;entryDy=0;" parent="1" source="WA74hJwfeO4JnZrtwxxe-4" target="WA74hJwfeO4JnZrtwxxe-6" edge="1">
          <mxGeometry relative="1" as="geometry" />
        </mxCell>
        <mxCell id="WA74hJwfeO4JnZrtwxxe-4" value="Bestellung ist abgeschickt" style="shape=hexagon;perimeter=hexagonPerimeter;whiteSpace=wrap;html=1;rounded=0;shadow=0;labelBackgroundColor=none;strokeWidth=1;fontFamily=Verdana;fontSize=12;align=center;" parent="1" vertex="1">
          <mxGeometry x="780" y="190" width="120" height="80" as="geometry" />
        </mxCell>
        <mxCell id="WA74hJwfeO4JnZrtwxxe-9" style="edgeStyle=orthogonalEdgeStyle;rounded=0;orthogonalLoop=1;jettySize=auto;html=1;exitX=0.5;exitY=1;exitDx=0;exitDy=0;entryX=0.5;entryY=0;entryDx=0;entryDy=0;" parent="1" source="WA74hJwfeO4JnZrtwxxe-6" target="WA74hJwfeO4JnZrtwxxe-7" edge="1">
          <mxGeometry relative="1" as="geometry" />
        </mxCell>
        <mxCell id="WA74hJwfeO4JnZrtwxxe-6" value="Zahlungsmethode auswählen" style="rounded=1;whiteSpace=wrap;html=1;shadow=0;labelBackgroundColor=none;strokeWidth=1;fontFamily=Verdana;fontSize=12;align=center;" parent="1" vertex="1">
          <mxGeometry x="780" y="290" width="120" height="80" as="geometry" />
        </mxCell>
        <mxCell id="WA74hJwfeO4JnZrtwxxe-12" style="edgeStyle=orthogonalEdgeStyle;rounded=0;orthogonalLoop=1;jettySize=auto;html=1;exitX=0;exitY=0.5;exitDx=0;exitDy=0;entryX=1;entryY=0.5;entryDx=0;entryDy=0;" parent="1" source="WA74hJwfeO4JnZrtwxxe-7" target="WA74hJwfeO4JnZrtwxxe-10" edge="1">
          <mxGeometry relative="1" as="geometry" />
        </mxCell>
        <mxCell id="WA74hJwfeO4JnZrtwxxe-13" style="edgeStyle=orthogonalEdgeStyle;rounded=0;orthogonalLoop=1;jettySize=auto;html=1;exitX=1;exitY=0.5;exitDx=0;exitDy=0;entryX=0;entryY=0.5;entryDx=0;entryDy=0;" parent="1" source="WA74hJwfeO4JnZrtwxxe-7" target="WA74hJwfeO4JnZrtwxxe-11" edge="1">
          <mxGeometry relative="1" as="geometry" />
        </mxCell>
        <mxCell id="WA74hJwfeO4JnZrtwxxe-7" value="V" style="ellipse;whiteSpace=wrap;html=1;rounded=1;shadow=0;labelBackgroundColor=none;strokeWidth=1;fontFamily=Verdana;fontSize=12;align=center;" parent="1" vertex="1">
          <mxGeometry x="820" y="385" width="40" height="40" as="geometry" />
        </mxCell>
        <mxCell id="WA74hJwfeO4JnZrtwxxe-17" style="edgeStyle=orthogonalEdgeStyle;rounded=0;orthogonalLoop=1;jettySize=auto;html=1;exitX=0.5;exitY=1;exitDx=0;exitDy=0;entryX=0.5;entryY=0;entryDx=0;entryDy=0;" parent="1" source="WA74hJwfeO4JnZrtwxxe-10" target="WA74hJwfeO4JnZrtwxxe-15" edge="1">
          <mxGeometry relative="1" as="geometry" />
        </mxCell>
        <mxCell id="WA74hJwfeO4JnZrtwxxe-10" value="Kreditkarte, Paypal" style="rounded=1;whiteSpace=wrap;html=1;shadow=0;labelBackgroundColor=none;strokeWidth=1;fontFamily=Verdana;fontSize=12;align=center;" parent="1" vertex="1">
          <mxGeometry x="620" y="365" width="120" height="80" as="geometry" />
        </mxCell>
        <mxCell id="WA74hJwfeO4JnZrtwxxe-18" style="edgeStyle=orthogonalEdgeStyle;rounded=0;orthogonalLoop=1;jettySize=auto;html=1;exitX=0.5;exitY=1;exitDx=0;exitDy=0;" parent="1" source="WA74hJwfeO4JnZrtwxxe-11" target="WA74hJwfeO4JnZrtwxxe-16" edge="1">
          <mxGeometry relative="1" as="geometry" />
        </mxCell>
        <mxCell id="WA74hJwfeO4JnZrtwxxe-11" value="Überweisung" style="rounded=1;whiteSpace=wrap;html=1;shadow=0;labelBackgroundColor=none;strokeWidth=1;fontFamily=Verdana;fontSize=12;align=center;" parent="1" vertex="1">
          <mxGeometry x="940" y="365" width="120" height="80" as="geometry" />
        </mxCell>
        <mxCell id="WA74hJwfeO4JnZrtwxxe-21" style="edgeStyle=orthogonalEdgeStyle;rounded=0;orthogonalLoop=1;jettySize=auto;html=1;exitX=0.5;exitY=1;exitDx=0;exitDy=0;entryX=0;entryY=0.5;entryDx=0;entryDy=0;" parent="1" source="WA74hJwfeO4JnZrtwxxe-15" target="WA74hJwfeO4JnZrtwxxe-19" edge="1">
          <mxGeometry relative="1" as="geometry" />
        </mxCell>
        <mxCell id="WA74hJwfeO4JnZrtwxxe-15" value="sofort verarbeitet&lt;div&gt;&lt;br&gt;&lt;/div&gt;" style="shape=hexagon;perimeter=hexagonPerimeter;whiteSpace=wrap;html=1;rounded=0;shadow=0;labelBackgroundColor=none;strokeWidth=1;fontFamily=Verdana;fontSize=12;align=center;" parent="1" vertex="1">
          <mxGeometry x="620" y="490" width="120" height="80" as="geometry" />
        </mxCell>
        <mxCell id="WA74hJwfeO4JnZrtwxxe-22" style="edgeStyle=orthogonalEdgeStyle;rounded=0;orthogonalLoop=1;jettySize=auto;html=1;exitX=0.5;exitY=1;exitDx=0;exitDy=0;entryX=1;entryY=0.5;entryDx=0;entryDy=0;" parent="1" source="WA74hJwfeO4JnZrtwxxe-16" target="WA74hJwfeO4JnZrtwxxe-19" edge="1">
          <mxGeometry relative="1" as="geometry" />
        </mxCell>
        <mxCell id="WA74hJwfeO4JnZrtwxxe-16" value="&lt;div&gt;Erst nach Zahlungseingang&lt;/div&gt;" style="shape=hexagon;perimeter=hexagonPerimeter;whiteSpace=wrap;html=1;rounded=0;shadow=0;labelBackgroundColor=none;strokeWidth=1;fontFamily=Verdana;fontSize=12;align=center;" parent="1" vertex="1">
          <mxGeometry x="940" y="490" width="120" height="80" as="geometry" />
        </mxCell>
        <mxCell id="WA74hJwfeO4JnZrtwxxe-23" style="edgeStyle=orthogonalEdgeStyle;rounded=0;orthogonalLoop=1;jettySize=auto;html=1;exitX=0.5;exitY=1;exitDx=0;exitDy=0;entryX=0.5;entryY=0;entryDx=0;entryDy=0;" parent="1" source="WA74hJwfeO4JnZrtwxxe-19" target="WA74hJwfeO4JnZrtwxxe-20" edge="1">
          <mxGeometry relative="1" as="geometry" />
        </mxCell>
        <mxCell id="WA74hJwfeO4JnZrtwxxe-19" value="V" style="ellipse;whiteSpace=wrap;html=1;rounded=1;shadow=0;labelBackgroundColor=none;strokeWidth=1;fontFamily=Verdana;fontSize=12;align=center;" parent="1" vertex="1">
          <mxGeometry x="820" y="600" width="40" height="40" as="geometry" />
        </mxCell>
        <mxCell id="WA74hJwfeO4JnZrtwxxe-27" value="" style="edgeStyle=orthogonalEdgeStyle;rounded=0;orthogonalLoop=1;jettySize=auto;html=1;" parent="1" source="WA74hJwfeO4JnZrtwxxe-20" target="WA74hJwfeO4JnZrtwxxe-25" edge="1">
          <mxGeometry relative="1" as="geometry" />
        </mxCell>
        <mxCell id="WA74hJwfeO4JnZrtwxxe-20" value="Zahlung überprüfen" style="rounded=1;whiteSpace=wrap;html=1;shadow=0;labelBackgroundColor=none;strokeWidth=1;fontFamily=Verdana;fontSize=12;align=center;" parent="1" vertex="1">
          <mxGeometry x="780" y="690" width="120" height="80" as="geometry" />
        </mxCell>
        <mxCell id="WA74hJwfeO4JnZrtwxxe-32" value="" style="edgeStyle=orthogonalEdgeStyle;rounded=0;orthogonalLoop=1;jettySize=auto;html=1;" parent="1" source="WA74hJwfeO4JnZrtwxxe-24" target="WA74hJwfeO4JnZrtwxxe-30" edge="1">
          <mxGeometry relative="1" as="geometry" />
        </mxCell>
        <mxCell id="WA74hJwfeO4JnZrtwxxe-24" value="Zahlung erfolgreich" style="rounded=1;whiteSpace=wrap;html=1;shadow=0;labelBackgroundColor=none;strokeWidth=1;fontFamily=Verdana;fontSize=12;align=center;" parent="1" vertex="1">
          <mxGeometry x="610" y="790" width="120" height="80" as="geometry" />
        </mxCell>
        <mxCell id="WA74hJwfeO4JnZrtwxxe-28" value="" style="edgeStyle=orthogonalEdgeStyle;rounded=0;orthogonalLoop=1;jettySize=auto;html=1;" parent="1" source="WA74hJwfeO4JnZrtwxxe-25" target="WA74hJwfeO4JnZrtwxxe-24" edge="1">
          <mxGeometry relative="1" as="geometry" />
        </mxCell>
        <mxCell id="WA74hJwfeO4JnZrtwxxe-29" value="" style="edgeStyle=orthogonalEdgeStyle;rounded=0;orthogonalLoop=1;jettySize=auto;html=1;" parent="1" source="WA74hJwfeO4JnZrtwxxe-25" target="WA74hJwfeO4JnZrtwxxe-26" edge="1">
          <mxGeometry relative="1" as="geometry" />
        </mxCell>
        <mxCell id="WA74hJwfeO4JnZrtwxxe-25" value="V" style="ellipse;whiteSpace=wrap;html=1;rounded=1;shadow=0;labelBackgroundColor=none;strokeWidth=1;fontFamily=Verdana;fontSize=12;align=center;" parent="1" vertex="1">
          <mxGeometry x="820" y="810" width="40" height="40" as="geometry" />
        </mxCell>
        <mxCell id="WA74hJwfeO4JnZrtwxxe-33" value="" style="edgeStyle=orthogonalEdgeStyle;rounded=0;orthogonalLoop=1;jettySize=auto;html=1;" parent="1" source="WA74hJwfeO4JnZrtwxxe-26" target="WA74hJwfeO4JnZrtwxxe-31" edge="1">
          <mxGeometry relative="1" as="geometry" />
        </mxCell>
        <mxCell id="WA74hJwfeO4JnZrtwxxe-26" value="Zahlung nicht erfolgreich" style="rounded=1;whiteSpace=wrap;html=1;shadow=0;labelBackgroundColor=none;strokeWidth=1;fontFamily=Verdana;fontSize=12;align=center;" parent="1" vertex="1">
          <mxGeometry x="960" y="790" width="120" height="80" as="geometry" />
        </mxCell>
        <mxCell id="xcM7osp1fOeLDrLECV1N-2" value="" style="edgeStyle=orthogonalEdgeStyle;rounded=0;orthogonalLoop=1;jettySize=auto;html=1;" edge="1" parent="1" source="WA74hJwfeO4JnZrtwxxe-30" target="WA74hJwfeO4JnZrtwxxe-35">
          <mxGeometry relative="1" as="geometry" />
        </mxCell>
        <mxCell id="WA74hJwfeO4JnZrtwxxe-30" value="&lt;div&gt;Prozess geht weiter&lt;/div&gt;" style="shape=hexagon;perimeter=hexagonPerimeter;whiteSpace=wrap;html=1;rounded=0;shadow=0;labelBackgroundColor=none;strokeWidth=1;fontFamily=Verdana;fontSize=12;align=center;" parent="1" vertex="1">
          <mxGeometry x="610" y="910" width="120" height="80" as="geometry" />
        </mxCell>
        <mxCell id="WA74hJwfeO4JnZrtwxxe-34" style="edgeStyle=orthogonalEdgeStyle;rounded=0;orthogonalLoop=1;jettySize=auto;html=1;exitX=1;exitY=0.5;exitDx=0;exitDy=0;entryX=1;entryY=0.5;entryDx=0;entryDy=0;" parent="1" source="WA74hJwfeO4JnZrtwxxe-31" target="WA74hJwfeO4JnZrtwxxe-6" edge="1">
          <mxGeometry relative="1" as="geometry" />
        </mxCell>
        <mxCell id="WA74hJwfeO4JnZrtwxxe-31" value="&lt;div&gt;Kunde benachrichtigen, neue Zahlung notwendig&lt;/div&gt;" style="shape=hexagon;perimeter=hexagonPerimeter;whiteSpace=wrap;html=1;rounded=0;shadow=0;labelBackgroundColor=none;strokeWidth=1;fontFamily=Verdana;fontSize=12;align=center;" parent="1" vertex="1">
          <mxGeometry x="960" y="910" width="120" height="80" as="geometry" />
        </mxCell>
        <mxCell id="xcM7osp1fOeLDrLECV1N-3" value="" style="edgeStyle=orthogonalEdgeStyle;rounded=0;orthogonalLoop=1;jettySize=auto;html=1;" edge="1" parent="1" source="WA74hJwfeO4JnZrtwxxe-35" target="xcM7osp1fOeLDrLECV1N-1">
          <mxGeometry relative="1" as="geometry" />
        </mxCell>
        <mxCell id="WA74hJwfeO4JnZrtwxxe-35" value="Bestellbestätigung" style="rounded=1;whiteSpace=wrap;html=1;shadow=0;labelBackgroundColor=none;strokeWidth=1;fontFamily=Verdana;fontSize=12;align=center;" parent="1" vertex="1">
          <mxGeometry x="610" y="1030" width="120" height="80" as="geometry" />
        </mxCell>
        <mxCell id="xcM7osp1fOeLDrLECV1N-5" value="" style="edgeStyle=orthogonalEdgeStyle;rounded=0;orthogonalLoop=1;jettySize=auto;html=1;" edge="1" parent="1" source="xcM7osp1fOeLDrLECV1N-1" target="xcM7osp1fOeLDrLECV1N-4">
          <mxGeometry relative="1" as="geometry" />
        </mxCell>
        <mxCell id="xcM7osp1fOeLDrLECV1N-1" value="&lt;div&gt;Email an&lt;/div&gt;&lt;div&gt;Kunden&lt;/div&gt;&lt;div&gt;versenden&lt;br&gt;&lt;/div&gt;" style="shape=hexagon;perimeter=hexagonPerimeter;whiteSpace=wrap;html=1;rounded=0;shadow=0;labelBackgroundColor=none;strokeWidth=1;fontFamily=Verdana;fontSize=12;align=center;" vertex="1" parent="1">
          <mxGeometry x="610" y="1150" width="120" height="80" as="geometry" />
        </mxCell>
        <mxCell id="xcM7osp1fOeLDrLECV1N-11" value="" style="edgeStyle=orthogonalEdgeStyle;rounded=0;orthogonalLoop=1;jettySize=auto;html=1;" edge="1" parent="1" source="xcM7osp1fOeLDrLECV1N-4" target="xcM7osp1fOeLDrLECV1N-9">
          <mxGeometry relative="1" as="geometry" />
        </mxCell>
        <mxCell id="xcM7osp1fOeLDrLECV1N-4" value="Lager prüfen" style="rounded=1;whiteSpace=wrap;html=1;shadow=0;labelBackgroundColor=none;strokeWidth=1;fontFamily=Verdana;fontSize=12;align=center;" vertex="1" parent="1">
          <mxGeometry x="790" y="1150" width="120" height="80" as="geometry" />
        </mxCell>
        <mxCell id="xcM7osp1fOeLDrLECV1N-18" value="" style="edgeStyle=orthogonalEdgeStyle;rounded=0;orthogonalLoop=1;jettySize=auto;html=1;" edge="1" parent="1" source="xcM7osp1fOeLDrLECV1N-6" target="xcM7osp1fOeLDrLECV1N-14">
          <mxGeometry relative="1" as="geometry" />
        </mxCell>
        <mxCell id="xcM7osp1fOeLDrLECV1N-6" value="Artikel&amp;nbsp; verfügbar" style="rounded=1;whiteSpace=wrap;html=1;shadow=0;labelBackgroundColor=none;strokeWidth=1;fontFamily=Verdana;fontSize=12;align=center;" vertex="1" parent="1">
          <mxGeometry x="610" y="1270" width="120" height="80" as="geometry" />
        </mxCell>
        <mxCell id="xcM7osp1fOeLDrLECV1N-7" value="" style="edgeStyle=orthogonalEdgeStyle;rounded=0;orthogonalLoop=1;jettySize=auto;html=1;" edge="1" source="xcM7osp1fOeLDrLECV1N-9" target="xcM7osp1fOeLDrLECV1N-6" parent="1">
          <mxGeometry relative="1" as="geometry" />
        </mxCell>
        <mxCell id="xcM7osp1fOeLDrLECV1N-8" value="" style="edgeStyle=orthogonalEdgeStyle;rounded=0;orthogonalLoop=1;jettySize=auto;html=1;" edge="1" source="xcM7osp1fOeLDrLECV1N-9" target="xcM7osp1fOeLDrLECV1N-10" parent="1">
          <mxGeometry relative="1" as="geometry" />
        </mxCell>
        <mxCell id="xcM7osp1fOeLDrLECV1N-9" value="V" style="ellipse;whiteSpace=wrap;html=1;rounded=1;shadow=0;labelBackgroundColor=none;strokeWidth=1;fontFamily=Verdana;fontSize=12;align=center;" vertex="1" parent="1">
          <mxGeometry x="830" y="1290" width="40" height="40" as="geometry" />
        </mxCell>
        <mxCell id="xcM7osp1fOeLDrLECV1N-13" value="" style="edgeStyle=orthogonalEdgeStyle;rounded=0;orthogonalLoop=1;jettySize=auto;html=1;" edge="1" parent="1" source="xcM7osp1fOeLDrLECV1N-10" target="xcM7osp1fOeLDrLECV1N-12">
          <mxGeometry relative="1" as="geometry" />
        </mxCell>
        <mxCell id="xcM7osp1fOeLDrLECV1N-10" value="Artikel nicht verfügbar" style="rounded=1;whiteSpace=wrap;html=1;shadow=0;labelBackgroundColor=none;strokeWidth=1;fontFamily=Verdana;fontSize=12;align=center;" vertex="1" parent="1">
          <mxGeometry x="960" y="1270" width="120" height="80" as="geometry" />
        </mxCell>
        <mxCell id="xcM7osp1fOeLDrLECV1N-12" value="&lt;div&gt;Kunde informieren&lt;/div&gt;&lt;div&gt;Bestellprozess&lt;/div&gt;&lt;div&gt;storniert&lt;br&gt;&lt;/div&gt;" style="shape=hexagon;perimeter=hexagonPerimeter;whiteSpace=wrap;html=1;rounded=0;shadow=0;labelBackgroundColor=none;strokeWidth=1;fontFamily=Verdana;fontSize=12;align=center;" vertex="1" parent="1">
          <mxGeometry x="960" y="1390" width="120" height="80" as="geometry" />
        </mxCell>
        <mxCell id="xcM7osp1fOeLDrLECV1N-19" value="" style="edgeStyle=orthogonalEdgeStyle;rounded=0;orthogonalLoop=1;jettySize=auto;html=1;" edge="1" parent="1" source="xcM7osp1fOeLDrLECV1N-14" target="xcM7osp1fOeLDrLECV1N-17">
          <mxGeometry relative="1" as="geometry" />
        </mxCell>
        <mxCell id="xcM7osp1fOeLDrLECV1N-14" value="Artikel verpacken und versenden" style="shape=hexagon;perimeter=hexagonPerimeter;whiteSpace=wrap;html=1;rounded=0;shadow=0;labelBackgroundColor=none;strokeWidth=1;fontFamily=Verdana;fontSize=12;align=center;" vertex="1" parent="1">
          <mxGeometry x="610" y="1390" width="120" height="80" as="geometry" />
        </mxCell>
        <mxCell id="xcM7osp1fOeLDrLECV1N-22" value="" style="edgeStyle=orthogonalEdgeStyle;rounded=0;orthogonalLoop=1;jettySize=auto;html=1;" edge="1" parent="1" source="xcM7osp1fOeLDrLECV1N-16" target="xcM7osp1fOeLDrLECV1N-21">
          <mxGeometry relative="1" as="geometry" />
        </mxCell>
        <mxCell id="xcM7osp1fOeLDrLECV1N-16" value="Bestätigung an Kunden versenden" style="shape=hexagon;perimeter=hexagonPerimeter;whiteSpace=wrap;html=1;rounded=0;shadow=0;labelBackgroundColor=none;strokeWidth=1;fontFamily=Verdana;fontSize=12;align=center;" vertex="1" parent="1">
          <mxGeometry x="610" y="1630" width="120" height="80" as="geometry" />
        </mxCell>
        <mxCell id="xcM7osp1fOeLDrLECV1N-20" value="" style="edgeStyle=orthogonalEdgeStyle;rounded=0;orthogonalLoop=1;jettySize=auto;html=1;" edge="1" parent="1" source="xcM7osp1fOeLDrLECV1N-17" target="xcM7osp1fOeLDrLECV1N-16">
          <mxGeometry relative="1" as="geometry" />
        </mxCell>
        <mxCell id="xcM7osp1fOeLDrLECV1N-17" value="Artikel versendet" style="rounded=1;whiteSpace=wrap;html=1;shadow=0;labelBackgroundColor=none;strokeWidth=1;fontFamily=Verdana;fontSize=12;align=center;" vertex="1" parent="1">
          <mxGeometry x="610" y="1510" width="120" height="80" as="geometry" />
        </mxCell>
        <mxCell id="xcM7osp1fOeLDrLECV1N-21" value="Prozess fertig" style="shape=hexagon;perimeter=hexagonPerimeter;whiteSpace=wrap;html=1;rounded=0;shadow=0;labelBackgroundColor=none;strokeWidth=1;fontFamily=Verdana;fontSize=12;align=center;" vertex="1" parent="1">
          <mxGeometry x="780" y="1630" width="120" height="80" as="geometry" />
        </mxCell>
      </root>
    </mxGraphModel>
  </diagram>
</mxfile>
